HIERARCHY
ROOT Hips
{
	OFFSET 0.000000 0.000000 0.000000
	CHANNELS 6 Xposition Yposition Zposition Zrotation Yrotation Xrotation
	JOINT LHipJoint
	{
		OFFSET 0.000000 0.000000 0.000000
		CHANNELS 3 Zrotation Yrotation Xrotation
		JOINT LeftUpLeg
		{
			OFFSET 0.076937 -0.101296 0.047373
			CHANNELS 3 Zrotation Yrotation Xrotation
			JOINT LeftLeg
			{
				OFFSET 0.138181 -0.379650 0.000000
				CHANNELS 3 Zrotation Yrotation Xrotation
				JOINT LeftFoot
				{
					OFFSET 0.144621 -0.397343 0.000000
					CHANNELS 3 Zrotation Yrotation Xrotation
					JOINT LeftToeBase
					{
						OFFSET 0.008898 -0.024446 0.131094
						CHANNELS 3 Zrotation Yrotation Xrotation
						End Site
						{
							OFFSET 0.000000 0.000000 0.000000
						}
					}
				}
			}
		}
	}
	JOINT RHipJoint
	{
		OFFSET 0.000000 0.000000 0.000000
		CHANNELS 3 Zrotation Yrotation Xrotation
		JOINT RightUpLeg
		{
			OFFSET -0.073689 -0.101296 0.047373
			CHANNELS 3 Zrotation Yrotation Xrotation
			JOINT RightLeg
			{
				OFFSET -0.143511 -0.394292 0.000000
				CHANNELS 3 Zrotation Yrotation Xrotation
				JOINT RightFoot
				{
					OFFSET -0.144963 -0.398282 0.000000
					CHANNELS 3 Zrotation Yrotation Xrotation
					JOINT RightToeBase
					{
						OFFSET -0.009298 -0.025546 0.133386
						CHANNELS 3 Zrotation Yrotation Xrotation
						End Site
						{
							OFFSET 0.000000 0.000000 0.000000
						}
					}
				}
			}
		}
	}
	JOINT LowerBack
	{
		OFFSET 0.000000 0.000000 0.000000
		CHANNELS 3 Zrotation Yrotation Xrotation
		JOINT Spine
		{
			OFFSET 0.001596 0.114897 -0.010915
			CHANNELS 3 Zrotation Yrotation Xrotation
			JOINT Spine1
			{
				OFFSET 0.003201 0.115645 -0.002413
				CHANNELS 3 Zrotation Yrotation Xrotation
				JOINT Neck
				{
					OFFSET 0.000000 0.000000 0.000000
					CHANNELS 3 Zrotation Yrotation Xrotation
					JOINT Neck1
					{
						OFFSET -0.003058 0.098565 0.009709
						CHANNELS 3 Zrotation Yrotation Xrotation
						JOINT Head
						{
							OFFSET 0.005874 0.099418 -0.006997
							CHANNELS 3 Zrotation Yrotation Xrotation
							End Site
							{
								OFFSET 0.000000 0.000000 0.000000
							}
						}
					}
				}
				JOINT LeftShoulder
				{
					OFFSET 0.000000 0.000000 0.000000
					CHANNELS 3 Zrotation Yrotation Xrotation
					JOINT LeftArm
					{
						OFFSET 0.189788 0.067783 -0.017566
						CHANNELS 3 Zrotation Yrotation Xrotation
						JOINT LeftForeArm
						{
							OFFSET 0.281260 -0.000000 -0.000000
							CHANNELS 3 Zrotation Yrotation Xrotation
							JOINT LeftHand
							{
								OFFSET 0.196626 -0.000000 -0.000000
								CHANNELS 3 Zrotation Yrotation Xrotation
								JOINT LeftFingerBase
								{
									OFFSET 0.000000 0.000000 0.000000
									CHANNELS 3 Zrotation Yrotation Xrotation
									JOINT LeftHandIndex1
									{
										OFFSET 0.040372 -0.000000 -0.000000
										CHANNELS 3 Zrotation Yrotation Xrotation
										End Site
										{
											OFFSET 0.000000 0.000000 0.000000
										}
									}
								}
								JOINT LThumb
								{
									OFFSET 0.000000 0.000000 0.000000
									CHANNELS 3 Zrotation Yrotation Xrotation
									End Site
									{
										OFFSET 0.000000 0.000000 0.000000
									}
								}
							}
						}
					}
				}
				JOINT RightShoulder
				{
					OFFSET 0.000000 0.000000 0.000000
					CHANNELS 3 Zrotation Yrotation Xrotation
					JOINT RightArm
					{
						OFFSET -0.177042 0.077557 -0.022840
						CHANNELS 3 Zrotation Yrotation Xrotation
						JOINT RightForeArm
						{
							OFFSET -0.295874 -0.000000 -0.000000
							CHANNELS 3 Zrotation Yrotation Xrotation
							JOINT RightHand
							{
								OFFSET -0.194403 -0.000000 -0.000000
								CHANNELS 3 Zrotation Yrotation Xrotation
								JOINT RightFingerBase
								{
									OFFSET 0.000000 0.000000 0.000000
									CHANNELS 3 Zrotation Yrotation Xrotation
									JOINT RightHandIndex1
									{
										OFFSET -0.035138 -0.000000 -0.000000
										CHANNELS 3 Zrotation Yrotation Xrotation
										End Site
										{
											OFFSET 0.000000 0.000000 0.000000
										}
									}
								}
								JOINT RThumb
								{
									OFFSET 0.000000 0.000000 0.000000
									CHANNELS 3 Zrotation Yrotation Xrotation
									End Site
									{
										OFFSET 0.000000 0.000000 0.000000
									}
								}
							}
						}
					}
				}
			}
		}
	}
}
MOTION
Frames: 9
Frame Time: 0.033333
25.945360 0.992773 -2.646897 -178.259199 -64.685766 -179.593182 4.726209 28.645429 11.519063 -16.235253 -8.291770 -16.184733 -4.623886 0.610664 9.594157 11.402154 3.399739 -6.820095 -3.536207 -0.813433 -11.316254 -9.633349 -16.579242 -2.614357 29.703859 7.201266 4.758882 -3.146240 -4.571985 5.609246 -30.296109 -0.733127 -4.620855 0.126160 -1.048189 -4.312478 6.320639 -11.521116 -3.082379 -4.423506 -10.747713 14.969071 -4.379530 1.635515 -14.037618 3.625024 -36.586380 -11.083756 -4.287831 -32.985357 13.550768 -7.023096 -10.600535 -10.745873 5.732977 25.426976 14.054396 -74.508172 -15.425876 18.704621 -166.291844 -64.747923 179.142277 12.793433 -18.050258 5.831528 10.886084 8.011867 0.514229 0.011093 -0.042698 0.036155 0.019095 -0.011309 -0.002108 -8.230987 2.404416 -5.360165 99.310454 28.388924 50.403773 158.100226 55.156094 -175.167843 -1.530158 25.840453 -9.611567 -18.976400 -4.867782 0.064831 -0.025586 -0.036962 0.078125 0.009854 -0.023967 0.016511 
25.944363 0.992317 -2.645510 -178.383653 -64.869798 -179.353193 5.008652 28.448974 12.451405 -15.332051 -8.836298 -16.027718 -6.291157 0.675311 8.666191 12.773852 4.046601 -6.989548 -2.855482 -0.603127 -11.468270 -9.888570 -16.189489 -3.470727 29.818188 7.107064 4.920681 -3.030446 -4.718570 5.379674 -29.840408 -0.865399 -4.789091 0.100568 -1.229023 -4.163914 6.325735 -11.835338 -3.738687 -4.098288 -10.985152 14.725430 -4.535674 1.067919 -13.435127 3.880495 -38.231506 -11.086771 -4.911504 -34.403947 13.708962 -7.253445 -10.905231 -10.923614 5.388555 24.947903 14.378188 -74.477289 -15.618874 17.381726 -166.499164 -63.896451 178.512346 13.215151 -18.269661 5.766403 11.516177 8.076569 0.558777 0.018881 -0.049571 0.039149 0.022055 -0.016825 0.001139 -8.390735 3.548160 -5.730109 100.286814 28.673443 50.869099 157.468549 55.441048 -175.011985 -1.051394 25.884109 -10.569191 -19.524064 -4.452852 0.016242 -0.027658 -0.032341 0.084501 0.011536 -0.031906 0.014458 
25.943337 0.991729 -2.644260 -178.420106 -65.070741 -179.257792 5.251513 28.297895 13.034290 -14.643849 -9.082261 -15.857982 -7.241873 0.709692 8.109474 13.561552 4.406648 -7.042898 -2.379080 -0.564561 -11.517612 -10.097782 -15.899461 -3.974845 29.983589 7.102305 5.128854 -2.941096 -4.878720 5.159308 -29.299578 -0.974378 -5.175954 0.131863 -1.477594 -4.181895 6.347006 -11.956759 -4.099996 -3.753009 -11.140924 14.431925 -4.762368 0.629541 -12.916086 3.884122 -38.872123 -10.960022 -5.210541 -34.867230 13.748621 -7.336998 -10.913604 -11.099677 5.029788 24.328220 14.629208 -74.689357 -15.933849 16.387665 -166.593299 -63.155566 178.219445 13.444022 -18.312671 5.730144 11.938378 8.201471 0.598590 0.023715 -0.053929 0.040901 0.024121 -0.020155 0.003147 -8.380363 4.152113 -5.874613 101.066812 28.712888 51.165264 157.281280 55.902001 -175.253343 0.357229 26.383593 -12.440137 -19.584594 -4.071078 -0.094645 -0.028525 -0.029447 0.088795 0.012907 -0.037099 0.013487 
25.942270 0.990839 -2.643386 -178.704342 -65.023115 -178.852358 5.290847 28.063009 13.249672 -14.140840 -9.379155 -15.968632 -7.586726 0.840772 8.180429 13.913852 4.879090 -7.132538 -2.099026 -0.608460 -11.575941 -10.184961 -15.711470 -4.297108 29.797486 6.970900 4.988105 -2.523082 -5.021667 5.362475 -28.907259 -0.881820 -5.627799 0.268681 -1.597548 -4.275940 6.061939 -11.874330 -4.188764 -3.072735 -10.970643 14.301972 -4.883796 0.134889 -12.857841 3.791379 -39.445441 -10.825758 -5.592912 -35.332869 13.728744 -7.434800 -10.858263 -11.216204 4.599077 24.031973 14.580672 -75.018505 -16.030954 16.375664 -166.456000 -63.571353 177.861646 13.501909 -18.308262 5.710456 12.033011 8.412994 0.631488 0.026002 -0.055942 0.041229 0.024753 -0.021977 0.004167 -8.260666 4.500719 -6.015976 101.636206 28.082659 52.089231 157.243578 57.339554 -175.632896 0.878476 26.501486 -13.010541 -19.008501 -4.065060 -0.110091 -0.028859 -0.028158 0.090255 0.013626 -0.039002 0.013524 
25.941232 0.989895 -2.642672 -178.758515 -65.043561 -178.711504 5.294653 27.818581 13.297621 -13.722343 -9.448432 -16.104359 -7.490040 0.968608 8.256988 13.669084 5.189934 -7.190430 -1.996569 -0.750049 -11.521312 -10.138734 -15.748392 -4.493988 29.782379 6.788337 4.925988 -2.199250 -5.189975 5.609852 -28.679827 -0.741645 -6.192373 0.347345 -1.667415 -4.327569 5.824320 -11.511695 -4.036268 -2.289714 -10.513596 14.139886 -5.101336 -0.426607 -12.846436 3.480999 -39.009996 -10.552457 -5.530540 -34.900912 13.525186 -7.371786 -10.583219 -11.295999 4.260423 23.333246 14.462976 -75.200011 -16.125914 16.439326 -166.352132 -63.878034 177.882473 13.399781 -18.388853 5.583785 11.939179 8.612193 0.635276 0.025169 -0.055963 0.040945 0.023934 -0.022264 0.004310 -8.295060 4.230127 -6.233047 101.916718 27.040468 53.087014 156.839764 58.688146 -175.930992 0.338469 26.108664 -12.181058 -18.491517 -4.261171 -0.045850 -0.028630 -0.028442 0.089136 0.013847 -0.038653 0.013770 
25.940359 0.989487 -2.641876 -178.762981 -65.039048 -178.662902 5.283544 27.713233 13.340695 -13.419840 -9.349718 -16.188677 -7.390336 1.031281 8.156314 13.377257 5.266341 -7.159669 -1.994984 -0.820576 -11.442314 -10.072055 -15.795277 -4.628152 29.867462 6.698000 4.938652 -2.100886 -5.290834 5.782019 -28.711339 -0.630758 -6.452724 0.381489 -1.715810 -4.323287 5.710111 -11.330205 -3.877694 -1.945500 -10.275987 13.975815 -5.170654 -0.706814 -12.795666 3.343093 -38.773613 -10.417075 -5.392498 -34.683620 13.357037 -7.325345 -10.514268 -11.361735 4.140645 22.977065 14.342586 -75.237481 -16.231986 16.369827 -166.387180 -63.717476 177.917318 13.189367 -18.464552 5.357495 11.893172 8.666078 0.632543 0.024207 -0.055642 0.040710 0.023367 -0.022302 0.004193 -8.344342 4.107881 -6.301469 102.047736 26.346745 53.778031 156.534822 59.541408 -176.119654 -0.150672 25.899304 -11.450739 -18.127250 -4.386638 -0.004940 -0.028451 -0.028675 0.088162 0.013845 -0.038233 0.013850 
25.939339 0.988118 -2.641922 -179.098196 -64.693553 -178.183133 4.918042 27.471187 12.748580 -13.424728 -9.313446 -16.788881 -5.576955 1.367150 9.438080 11.944412 5.444860 -6.844413 -2.324297 -1.286972 -11.151519 -9.735219 -16.187808 -4.625524 29.358093 6.120999 4.442341 -1.419736 -5.699695 6.593505 -28.393862 -0.393796 -6.990352 0.714691 -1.765791 -4.562897 4.772347 -10.634296 -3.113918 -0.494849 -9.228489 13.861141 -5.527874 -1.252872 -13.428676 2.792966 -37.407325 -10.118955 -5.022675 -33.501901 12.834947 -7.148672 -10.029975 -11.347883 3.877713 22.460933 13.707531 -75.681452 -15.952185 17.963243 -165.786212 -65.302459 178.010315 12.564415 -18.765975 5.013792 11.385841 8.904990 0.603781 0.016235 -0.050003 0.037384 0.018945 -0.018873 0.002073 -8.452353 2.952843 -6.371258 101.903644 24.361505 55.069296 156.023473 61.989454 -177.513559 -1.087899 25.495151 -9.740623 -16.543583 -4.960002 0.101292 -0.026589 -0.033435 0.080081 0.012858 -0.030668 0.016056 
25.938524 0.987744 -2.641701 -179.075694 -64.510502 -178.146286 4.650022 27.403767 12.208290 -13.429814 -8.833543 -17.190834 -4.167395 1.459163 10.041855 10.472860 5.251087 -6.640460 -2.760723 -1.605394 -10.872840 -9.430380 -16.543938 -4.401667 29.216099 5.819654 4.181200 -1.175669 -5.890034 7.217394 -28.437082 -0.084675 -7.398918 0.982137 -1.840006 -4.730655 4.481147 -10.014315 -2.563686 0.094289 -8.600315 13.848767 -5.666749 -1.455156 -13.863150 2.283463 -35.729187 -9.832359 -4.454165 -31.993343 12.381773 -6.902166 -9.543884 -11.368103 3.847518 21.918930 13.304681 -76.118732 -15.996684 18.947393 -165.629924 -65.497649 178.297451 11.799066 -18.748552 4.523988 11.027613 9.042935 0.581599 0.009475 -0.044961 0.034653 0.015760 -0.015631 -0.000086 -8.427505 1.839948 -6.281944 101.619715 22.925038 55.992565 155.890251 63.753600 -178.551615 -1.346818 25.367383 -8.963561 -15.415135 -5.356716 0.138833 -0.024801 -0.037305 0.073799 0.011889 -0.024640 0.017916 
25.937621 0.987105 -2.641855 -179.254143 -64.123042 -177.800908 4.271946 27.304100 11.426093 -13.707681 -8.708090 -17.954834 -1.882668 1.619601 11.627528 8.471798 5.618624 -6.558674 -3.233904 -2.061280 -10.433551 -9.028457 -17.143343 -4.105218 28.740957 5.191871 3.630148 -0.932742 -6.101244 8.118209 -28.238302 0.306120 -7.901944 1.413533 -1.950289 -5.022292 3.857932 -9.090798 -1.774573 1.150731 -7.629397 13.949944 -5.967403 -1.653185 -14.651288 1.618873 -33.359196 -9.552030 -3.746155 -29.911848 11.640580 -6.589054 -8.858378 -11.411365 3.821870 21.260071 12.806455 -76.908942 -15.900776 20.895966 -165.315940 -66.280709 178.798821 10.760319 -18.886789 3.941973 10.551846 9.269930 0.555463 -0.001034 -0.036720 0.029612 0.010986 -0.010209 -0.003638 -8.401852 0.263405 -6.209525 101.100111 21.186050 56.623516 155.067497 66.355782 179.502341 -1.843206 24.899233 -7.687618 -13.763452 -6.067084 0.202207 -0.021742 -0.043758 0.063997 0.010096 -0.014910 0.021234 
